# xmcd
#
# Track frame offsets:
#	150
#	20157
#	39187
#	53340
#	71070
#	83237
#	102110
#	113392
#	135267
#	151512
#	168292
#
# Disc length: 2445 seconds
#
# Revision: 0
# Processed by: cddbd v1.5.2PL0 Copyright (c) Steve Scherf et al.
# Submitted via: EasyCDDAExtractor 12.0.1.1
#
DISCID=71098b0b
DTITLE=Savoy Brown - Let It Ride
DYEAR=1992
DGENRE=Blues
TTITLE0=Yesterdays Blues
TTITLE1=Flat Out
TTITLE2=Let Me Be Your Driver
TTITLE3=Feel Like Crying
TTITLE4=Looking Out
TTITLE5=Let it Ride
TTITLE6=Crusin' Speed
TTITLE7=Don't Tell Me Nothing
TTITLE8=Ain't No Sunshine
TTITLE9=Nothing But the Blues
TTITLE10=Down All The Days
EXTD=
EXTT0=
EXTT1=
EXTT2=
EXTT3=
EXTT4=
EXTT5=
EXTT6=
EXTT7=
EXTT8=
EXTT9=
EXTT10=
PLAYORDER=
